<svg xmlns="http://www.w3.org/2000/svg" width="141" height="100" viewBox="0 0 141 100">
    <g fill="none" fill-rule="evenodd">
        <path fill="#BD6772" fill-rule="nonzero" d="M140.427 55.846c1.52 5.452-.193 10.596-2.707 14.5a24.952 24.952 0 0 1-4.814 5.935 19.703 19.703 0 0 1-6.38 3.88c-7.281 2.571-14.777 3.643-22.166 5.036-2.463.465-4.914.965-7.341 1.569-7.33 1.11-14.183 6.255-22.115 7.904a26.571 26.571 0 0 1-7.545.115 32.141 32.141 0 0 1-7.202-1.812 47.49 47.49 0 0 1-6.9-3.273c-2.253-1.283-4.464-2.731-6.64-4.268C28.008 69.872-11.4 65.585 3.164 33.005c3.427-6.86 7.71-13.718 15.42-16.29C22.01 15.857 25.437 15 28.863 15c11.138.857 19.705 7.716 29.128 11.146a245.16 245.16 0 0 0 47.14 13.146c2.06.307 4.109.562 6.19.786 5.996.858 12.207 1.5 17.776 4.073 3.427 1.714 5.997 4.287 8.558 6.522a17.625 17.625 0 0 1 2.772 5.173z" opacity=".05"/>
        <path fill="#32CDAB" fill-rule="nonzero" stroke="#FFB57A" stroke-linecap="round" stroke-linejoin="round" stroke-width="2" d="M114 46v6M117 49h-6M36 37l-4 6M36 42l-5-4M119 85l-5 5M119 90l-5-5"/>
        <path fill="#32CDAB" fill-rule="nonzero" d="M104 83l-3 6h6zM19 3l5 3V0zM136 35l-6 1.608L134.392 41zM17 94l-3 6h6z"/>
        <path stroke="#FFB57A" stroke-linecap="round" d="M110 11v3M110 20v3M114 13l-2 2M107 19l-2 2M116 17h-3M106 17h-3M114 21l-2-2M107 15l-2-2"/>
        <path fill="#ECF3F7" fill-rule="nonzero" stroke="#3D4A54" stroke-width="2" d="M84.821 98H49.179a2.514 2.514 0 0 1-2.497-2.36L42 25h50l-4.682 70.64A2.514 2.514 0 0 1 84.82 98z"/>
        <path fill="#BD6772" fill-rule="nonzero" stroke="#3D4A54" stroke-width="2" d="M93.255 19h-52.51c-.937 0-1.785.593-2.163 1.513l-.381.927a2.697 2.697 0 0 0 .183 2.409c.436.718 1.18 1.151 1.98 1.151h53.272c.8 0 1.544-.433 1.98-1.151a2.697 2.697 0 0 0 .183-2.409l-.381-.927C95.04 19.593 94.192 19 93.255 19zM42.761 16h48.478c.42 0 .761.333.761.745V19H42v-2.255c0-.198.08-.387.223-.527A.77.77 0 0 1 42.76 16z"/>
        <path fill="#ECF3F7" fill-rule="nonzero" stroke="#3D4A54" stroke-width="2" d="M51.797 6H49v9h7l-1.901-7.18C53.814 6.745 52.872 6 51.797 6z"/>
        <path fill="#0AA7B9" fill-rule="nonzero" stroke="#3D4A54" stroke-width="2" d="M41 44l1.804 25h48.392L93 44z"/>
        <path fill="#342F1B" fill-rule="nonzero" d="M90 69l-.372 6H45.372L45 69z" opacity=".2"/>
        <ellipse cx="68" cy="55.5" fill="#BD6772" fill-rule="nonzero" stroke="#3D4A54" stroke-width="2" rx="8" ry="5.5" transform="rotate(-45 68 55.5)"/>
        <path stroke="#3D4A54" stroke-width="2" d="M74 51c-6.696 1.971-5.276 7.536-13 9"/>
        <path fill="#342F1B" fill-rule="nonzero" d="M42 25l.384 6h49.232L92 25z" opacity=".2"/>
    </g>
</svg>
